# xmcd
#
# Track frame offsets:
# 150
# 10080
# 15810
# 23852
# 36840
# 47105
# 57442
# 67380
# 76430
# 89877
# 101975
# 110020
# 123667
# 132990
#
# Disc length: 1823 seconds
#
#
# Revision: 0
# Processed by: cddbd v1.5.1PL0 Copyright (c) Steve Scherf et al.
# Submitted via: FreeRIP 2.90 
#
DISCID=c8071d0e
DTITLE=Alabama - Off The Record
DYEAR=1998
DGENRE=Country
TTITLE0=Introduction
TTITLE1=Born Country
TTITLE2=Dixieland Delight
TTITLE3=If I Had You
TTITLE4=Lady Down On Love
TTITLE5=Mountain Music
TTITLE6=Sad Lookin' Moon
TTITLE7=She And I
TTITLE8=Then Again
TTITLE9=Song Of The South
TTITLE10=Why Lady Why
TTITLE11=How Do You Fall In Love
TTITLE12=You've Got The Touch
TTITLE13=Closing Comments
EXTD=exclusive interview disc for BMG members
EXTT0=
EXTT1=
EXTT2=
EXTT3=
EXTT4=
EXTT5=
EXTT6=
EXTT7=
EXTT8=
EXTT9=
EXTT10=
EXTT11=
EXTT12=
EXTT13=
PLAYORDER=
